<svg width="597" height="609" viewBox="0 0 597 609" fill="none" xmlns="http://www.w3.org/2000/svg">
<path d="M473.477 303.941L417.075 315.155C413.924 315.781 412.349 316.095 411.066 316.856C409.932 317.53 408.967 318.451 408.246 319.552C407.429 320.796 407.052 322.348 406.298 325.453L378 442M378 442L495.237 413.869C498.36 413.119 499.921 412.744 501.173 411.933C502.28 411.215 503.207 410.257 503.884 409.129C504.651 407.854 504.966 406.287 505.596 403.155L516.876 347.084M378 442L443.845 376.542M541.775 320.065L500.657 279.188C497.22 275.771 495.501 274.062 493.519 273.422C491.776 272.859 489.898 272.859 488.155 273.422C486.173 274.062 484.454 275.771 481.017 279.188L474.618 285.55C471.181 288.967 469.461 290.675 468.818 292.646C468.251 294.379 468.251 296.245 468.818 297.978C469.461 299.949 471.181 301.657 474.618 305.074L515.736 345.951C519.173 349.368 520.892 351.076 522.874 351.717C524.617 352.279 526.495 352.279 528.238 351.717C530.22 351.076 531.939 349.368 535.376 345.951L541.775 339.589C545.212 336.172 546.932 334.464 547.575 332.493C548.142 330.76 548.142 328.894 547.575 327.161C546.932 325.19 545.212 323.482 541.775 320.065ZM456.118 347.084C465.706 347.084 473.477 354.811 473.477 364.341C473.477 373.873 465.706 381.599 456.118 381.599C446.531 381.599 438.758 373.873 438.758 364.341C438.758 354.811 446.531 347.084 456.118 347.084Z" stroke="#9FEF83" stroke-width="20" stroke-linecap="square" stroke-linejoin="round"/>
<path d="M551.211 236.464C551.211 236.464 600.264 123.459 525.45 60.725C478.693 21.5177 410.303 19.508 349.629 56.5711C288.955 93.6342 195.022 203.642 195.022 203.642M195.022 203.642C195.022 203.642 87.7715 316.232 52.4519 358.608C17.1323 400.984 22.4605 492.645 75.7273 540.578C117.318 578.005 164.202 589.479 216.211 568.829C276.902 544.732 332.58 482.017 332.58 482.017M195.022 203.642L332.58 339.515" stroke="#212121" stroke-width="60" stroke-linecap="round" stroke-linejoin="round"/>
</svg>
