<svg width="577" height="155" viewBox="0 0 577 155" fill="none" xmlns="http://www.w3.org/2000/svg">
<path d="M87.13 45.82V109H71.74V71.11L57.61 109H45.19L30.97 71.02V109H15.58V45.82H33.76L51.49 89.56L69.04 45.82H87.13ZM145.537 83.08C145.537 84.52 145.447 86.02 145.267 87.58H110.437C110.677 90.7 111.667 93.1 113.407 94.78C115.207 96.4 117.397 97.21 119.977 97.21C123.817 97.21 126.487 95.59 127.987 92.35H144.367C143.527 95.65 141.997 98.62 139.777 101.26C137.617 103.9 134.887 105.97 131.587 107.47C128.287 108.97 124.597 109.72 120.517 109.72C115.597 109.72 111.217 108.67 107.377 106.57C103.537 104.47 100.537 101.47 98.3772 97.57C96.2172 93.67 95.1372 89.11 95.1372 83.89C95.1372 78.67 96.1872 74.11 98.2872 70.21C100.447 66.31 103.447 63.31 107.287 61.21C111.127 59.11 115.537 58.06 120.517 58.06C125.377 58.06 129.697 59.08 133.477 61.12C137.257 63.16 140.197 66.07 142.297 69.85C144.457 73.63 145.537 78.04 145.537 83.08ZM129.787 79.03C129.787 76.39 128.887 74.29 127.087 72.73C125.287 71.17 123.037 70.39 120.337 70.39C117.757 70.39 115.567 71.14 113.767 72.64C112.027 74.14 110.947 76.27 110.527 79.03H129.787ZM150.596 83.8C150.596 78.64 151.556 74.11 153.476 70.21C155.456 66.31 158.126 63.31 161.486 61.21C164.846 59.11 168.596 58.06 172.736 58.06C176.036 58.06 179.036 58.75 181.736 60.13C184.496 61.51 186.656 63.37 188.216 65.71V42.4H203.606V109H188.216V101.8C186.776 104.2 184.706 106.12 182.006 107.56C179.366 109 176.276 109.72 172.736 109.72C168.596 109.72 164.846 108.67 161.486 106.57C158.126 104.41 155.456 101.38 153.476 97.48C151.556 93.52 150.596 88.96 150.596 83.8ZM188.216 83.89C188.216 80.05 187.136 77.02 184.976 74.8C182.876 72.58 180.296 71.47 177.236 71.47C174.176 71.47 171.566 72.58 169.406 74.8C167.306 76.96 166.256 79.96 166.256 83.8C166.256 87.64 167.306 90.7 169.406 92.98C171.566 95.2 174.176 96.31 177.236 96.31C180.296 96.31 182.876 95.2 184.976 92.98C187.136 90.76 188.216 87.73 188.216 83.89Z" fill="#212121"/>
<rect width="357" height="143" transform="translate(220 6)" fill="#9FEF83"/>
<path d="M227.52 83.8C227.52 78.64 228.48 74.11 230.4 70.21C232.38 66.31 235.05 63.31 238.41 61.21C241.77 59.11 245.52 58.06 249.66 58.06C253.2 58.06 256.29 58.78 258.93 60.22C261.63 61.66 263.7 63.55 265.14 65.89V58.78H280.53V109H265.14V101.89C263.64 104.23 261.54 106.12 258.84 107.56C256.2 109 253.11 109.72 249.57 109.72C245.49 109.72 241.77 108.67 238.41 106.57C235.05 104.41 232.38 101.38 230.4 97.48C228.48 93.52 227.52 88.96 227.52 83.8ZM265.14 83.89C265.14 80.05 264.06 77.02 261.9 74.8C259.8 72.58 257.22 71.47 254.16 71.47C251.1 71.47 248.49 72.58 246.33 74.8C244.23 76.96 243.18 79.96 243.18 83.8C243.18 87.64 244.23 90.7 246.33 92.98C248.49 95.2 251.1 96.31 254.16 96.31C257.22 96.31 259.8 95.2 261.9 92.98C264.06 90.76 265.14 87.73 265.14 83.89ZM288.604 83.8C288.604 78.64 289.564 74.11 291.484 70.21C293.464 66.31 296.134 63.31 299.494 61.21C302.854 59.11 306.604 58.06 310.744 58.06C314.284 58.06 317.374 58.78 320.014 60.22C322.714 61.66 324.784 63.55 326.224 65.89V58.78H341.614V109H326.224V101.89C324.724 104.23 322.624 106.12 319.924 107.56C317.284 109 314.194 109.72 310.654 109.72C306.574 109.72 302.854 108.67 299.494 106.57C296.134 104.41 293.464 101.38 291.484 97.48C289.564 93.52 288.604 88.96 288.604 83.8ZM326.224 83.89C326.224 80.05 325.144 77.02 322.984 74.8C320.884 72.58 318.304 71.47 315.244 71.47C312.184 71.47 309.574 72.58 307.414 74.8C305.314 76.96 304.264 79.96 304.264 83.8C304.264 87.64 305.314 90.7 307.414 92.98C309.574 95.2 312.184 96.31 315.244 96.31C318.304 96.31 320.884 95.2 322.984 92.98C325.144 90.76 326.224 87.73 326.224 83.89ZM375.338 94.6L386.228 58.78H402.608L384.788 109H365.798L347.978 58.78H364.448L375.338 94.6ZM460.386 58.78L428.886 132.85H412.326L423.846 107.29L403.416 58.78H420.606L432.216 90.19L443.736 58.78H460.386ZM462.891 83.8C462.891 78.64 463.851 74.11 465.771 70.21C467.751 66.31 470.421 63.31 473.781 61.21C477.141 59.11 480.891 58.06 485.031 58.06C488.571 58.06 491.661 58.78 494.301 60.22C497.001 61.66 499.071 63.55 500.511 65.89V58.78H515.901V109H500.511V101.89C499.011 104.23 496.911 106.12 494.211 107.56C491.571 109 488.481 109.72 484.941 109.72C480.861 109.72 477.141 108.67 473.781 106.57C470.421 104.41 467.751 101.38 465.771 97.48C463.851 93.52 462.891 88.96 462.891 83.8ZM500.511 83.89C500.511 80.05 499.431 77.02 497.271 74.8C495.171 72.58 492.591 71.47 489.531 71.47C486.471 71.47 483.861 72.58 481.701 74.8C479.601 76.96 478.551 79.96 478.551 83.8C478.551 87.64 479.601 90.7 481.701 92.98C483.861 95.2 486.471 96.31 489.531 96.31C492.591 96.31 495.171 95.2 497.271 92.98C499.431 90.76 500.511 87.73 500.511 83.89ZM547.465 109.72C543.085 109.72 539.185 108.97 535.765 107.47C532.345 105.97 529.645 103.93 527.665 101.35C525.685 98.71 524.575 95.77 524.335 92.53H539.545C539.725 94.27 540.535 95.68 541.975 96.76C543.415 97.84 545.185 98.38 547.285 98.38C549.205 98.38 550.675 98.02 551.695 97.3C552.775 96.52 553.315 95.53 553.315 94.33C553.315 92.89 552.565 91.84 551.065 91.18C549.565 90.46 547.135 89.68 543.775 88.84C540.175 88 537.175 87.13 534.775 86.23C532.375 85.27 530.305 83.8 528.565 81.82C526.825 79.78 525.955 77.05 525.955 73.63C525.955 70.75 526.735 68.14 528.295 65.8C529.915 63.4 532.255 61.51 535.315 60.13C538.435 58.75 542.125 58.06 546.385 58.06C552.685 58.06 557.635 59.62 561.235 62.74C564.895 65.86 566.995 70 567.535 75.16H553.315C553.075 73.42 552.295 72.04 550.975 71.02C549.715 70 548.035 69.49 545.935 69.49C544.135 69.49 542.755 69.85 541.795 70.57C540.835 71.23 540.355 72.16 540.355 73.36C540.355 74.8 541.105 75.88 542.605 76.6C544.165 77.32 546.565 78.04 549.805 78.76C553.525 79.72 556.555 80.68 558.895 81.64C561.235 82.54 563.275 84.04 565.015 86.14C566.815 88.18 567.745 90.94 567.805 94.42C567.805 97.36 566.965 100 565.285 102.34C563.665 104.62 561.295 106.42 558.175 107.74C555.115 109.06 551.545 109.72 547.465 109.72Z" fill="#F3F0F0"/>
</svg>
